<svg data-name="Group 1571" xmlns="http://www.w3.org/2000/svg" width="158.136" height="79.234" viewBox="0 0 158.136 79.234"><path data-name="Path 462" d="M78.686 0H58.823l-6.111 12.358h1.783v11.63h-7.513l-3.947 8h11.587v11.627H37.178l-4.074 8H20.372v-8h16.806l5.73-11.631H20.372v-8h26.483l5.73-11.631H0v51.471h54.494V51.611l4.329-7.269H80.85l4.456 7.269h1.528V26.533h5.22zM61.5 32.493L69.009 16.5l7.512 15.992z" fill="#00016a"/><path data-name="Path 463" d="M99.695 57.645h8.658v-9.3c-3.692-2.326-6.493-5.379-6.493-8.8a13.719 13.719 0 016.493-12.212v-.8H91.928l12.607 25.079h-17.7v27.621h21.645v-6.831c-9.545-5.669-8.785-14.757-8.785-14.757z" fill="#00016a"/><path data-name="Path 464" d="M137 42.379c-21.009-5.088-18.848-10.172-8.022-10.322s8.274 6.106 8.274 6.106h19.353s-.634-15.556-25.717-15.556c-11.2 0-18.207 1.963-22.536 4.8v21.006a33.328 33.328 0 0013.878 4.725c8.276.727 21.645 3.271 16.3 10.758s-23.937-1.6-20.117-6.179h-10.061v14.757c4.2 2.544 10.441 4.362 19.735 4.362 30.048 0 30.048-12.939 30.048-17.3S158.008 47.468 137 42.379z" fill="#00016a"/></svg>